<svg width="744" height="188" viewBox="0 0 744 188" fill="none" xmlns="http://www.w3.org/2000/svg">
<path d="M83.776 125.9H33.726L24.178 149H-1.386L46.662 41.2H71.302L119.504 149H93.324L83.776 125.9ZM75.922 106.958L58.828 65.686L41.734 106.958H75.922ZM211.712 66.148V135.14C211.712 150.335 207.76 161.628 199.854 169.02C191.949 176.412 180.399 180.108 165.204 180.108C157.196 180.108 149.599 179.133 142.412 177.182C135.226 175.231 129.271 172.408 124.548 168.712L134.096 151.464C137.587 154.339 142.002 156.597 147.34 158.24C152.679 159.985 158.018 160.858 163.356 160.858C171.672 160.858 177.781 158.959 181.682 155.16C185.686 151.464 187.688 145.817 187.688 138.22V134.678C181.426 141.557 172.699 144.996 161.508 144.996C153.911 144.996 146.93 143.353 140.564 140.068C134.302 136.68 129.322 131.957 125.626 125.9C121.93 119.843 120.082 112.861 120.082 104.956C120.082 97.0507 121.93 90.0693 125.626 84.012C129.322 77.9547 134.302 73.2833 140.564 69.998C146.93 66.61 153.911 64.916 161.508 64.916C173.52 64.916 182.658 68.8687 188.92 76.774V66.148H211.712ZM166.282 125.284C172.648 125.284 177.832 123.436 181.836 119.74C185.943 115.941 187.996 111.013 187.996 104.956C187.996 98.8987 185.943 94.022 181.836 90.326C177.832 86.5273 172.648 84.628 166.282 84.628C159.917 84.628 154.681 86.5273 150.574 90.326C146.468 94.022 144.414 98.8987 144.414 104.956C144.414 111.013 146.468 115.941 150.574 119.74C154.681 123.436 159.917 125.284 166.282 125.284ZM255.018 77.082C257.893 73.078 261.743 70.0493 266.568 67.996C271.496 65.9427 277.143 64.916 283.508 64.916V87.092C280.839 86.8867 279.042 86.784 278.118 86.784C271.24 86.784 265.85 88.7347 261.948 92.636C258.047 96.4347 256.096 102.184 256.096 109.884V149H232.072V66.148H255.018V77.082ZM334.465 150.232C325.738 150.232 317.884 148.435 310.903 144.842C304.024 141.146 298.634 136.064 294.733 129.596C290.832 123.128 288.881 115.787 288.881 107.574C288.881 99.3607 290.832 92.02 294.733 85.552C298.634 79.084 304.024 74.0533 310.903 70.46C317.884 66.764 325.738 64.916 334.465 64.916C343.192 64.916 350.994 66.764 357.873 70.46C364.752 74.0533 370.142 79.084 374.043 85.552C377.944 92.02 379.895 99.3607 379.895 107.574C379.895 115.787 377.944 123.128 374.043 129.596C370.142 136.064 364.752 141.146 357.873 144.842C350.994 148.435 343.192 150.232 334.465 150.232ZM334.465 130.52C340.625 130.52 345.656 128.467 349.557 124.36C353.561 120.151 355.563 114.555 355.563 107.574C355.563 100.593 353.561 95.0487 349.557 90.942C345.656 86.7327 340.625 84.628 334.465 84.628C328.305 84.628 323.223 86.7327 319.219 90.942C315.215 95.0487 313.213 100.593 313.213 107.574C313.213 114.555 315.215 120.151 319.219 124.36C323.223 128.467 328.305 130.52 334.465 130.52ZM473.933 66.148L438.975 149H414.181L379.377 66.148H404.171L427.117 122.512L450.833 66.148H473.933ZM481.736 66.148H505.76V149H481.736V66.148ZM493.748 54.598C489.334 54.598 485.74 53.3147 482.968 50.748C480.196 48.1813 478.81 44.9987 478.81 41.2C478.81 37.4013 480.196 34.2187 482.968 31.652C485.74 29.0853 489.334 27.802 493.748 27.802C498.163 27.802 501.756 29.034 504.528 31.498C507.3 33.962 508.686 37.042 508.686 40.738C508.686 44.742 507.3 48.0787 504.528 50.748C501.756 53.3147 498.163 54.598 493.748 54.598ZM594.279 130.52V149H520.359V134.524L562.555 84.628H521.437V66.148H592.893V80.624L550.697 130.52H594.279Z" transform="translate(147)" fill="url(#paint0_linear)"/>
<mask id="mask0" mask-type="alpha" maskUnits="userSpaceOnUse" x="0" y="27" width="130" height="123">
<path d="M61.0989 113.924C50.7235 116.148 41.0029 125.932 32.4999 121.024C13.0714 109.811 0 88.8537 0 64.8499C0 29.0343 29.101 0 64.9989 0C100.897 0 129.998 29.0343 129.998 64.8499C129.998 88.8572 116.922 109.818 97.4892 121.029C88.9883 125.934 79.2707 116.149 68.8988 113.924V103.529C85.009 101.607 97.4983 87.9259 97.4983 71.3349C79.7665 71.3349 65.3515 85.5028 65.0052 103.111H64.9925C64.6463 85.5028 50.2312 71.3349 32.4994 71.3349C32.4994 87.9259 44.9887 101.607 61.0989 103.529V113.924ZM32.4994 45.3949C32.4994 63.3027 47.0499 77.8198 64.9989 77.8198C64.9989 59.912 50.4484 45.3949 32.4994 45.3949ZM97.4983 45.3949C97.4983 63.3027 82.9478 77.8198 64.9989 77.8198C64.9989 59.912 79.5493 45.3949 97.4983 45.3949ZM58.174 21.7247V47.6646C58.174 49.4562 59.338 50.9072 60.7739 50.9072C62.2102 50.9072 63.3739 49.4554 63.3739 47.6646V21.7247C63.3739 19.9331 62.2098 18.4822 60.7739 18.4822C59.3377 18.4822 58.174 19.9339 58.174 21.7247ZM66.6238 21.7247V47.6646C66.6238 49.4562 67.7879 50.9072 69.2238 50.9072C70.66 50.9072 71.8237 49.4554 71.8237 47.6646V21.7247C71.8237 19.9331 70.6597 18.4822 69.2238 18.4822C67.7876 18.4822 66.6238 19.9339 66.6238 21.7247ZM75.0737 21.7216V41.1828C75.0737 42.9719 76.2377 44.4222 77.6736 44.4222C79.1099 44.4222 80.2736 42.9718 80.2736 41.1828V21.7216C80.2736 19.9324 79.1095 18.4822 77.6736 18.4822C76.2374 18.4822 75.0737 19.9325 75.0737 21.7216ZM49.7241 21.7216V41.1828C49.7241 42.9719 50.8882 44.4222 52.3241 44.4222C53.7603 44.4222 54.924 42.9718 54.924 41.1828V21.7216C54.924 19.9324 53.76 18.4822 52.3241 18.4822C50.8878 18.4822 49.7241 19.9325 49.7241 21.7216Z" transform="translate(129.998 27) scale(-1 1)" fill="white"/>
</mask>
<g mask="url(#mask0)">
<path d="M61.0989 113.924C50.7235 116.148 41.0029 125.932 32.4999 121.024C13.0714 109.811 0 88.8537 0 64.8499C0 29.0343 29.101 0 64.9989 0C100.897 0 129.998 29.0343 129.998 64.8499C129.998 88.8572 116.922 109.818 97.4892 121.029C88.9883 125.934 79.2707 116.149 68.8988 113.924V103.529C85.009 101.607 97.4983 87.9259 97.4983 71.3349C79.7665 71.3349 65.3515 85.5028 65.0052 103.111H64.9925C64.6463 85.5028 50.2312 71.3349 32.4994 71.3349C32.4994 87.9259 44.9887 101.607 61.0989 103.529V113.924ZM32.4994 45.3949C32.4994 63.3027 47.0499 77.8198 64.9989 77.8198C64.9989 59.912 50.4484 45.3949 32.4994 45.3949ZM97.4983 45.3949C97.4983 63.3027 82.9478 77.8198 64.9989 77.8198C64.9989 59.912 79.5493 45.3949 97.4983 45.3949ZM58.174 21.7247V47.6646C58.174 49.4562 59.338 50.9072 60.7739 50.9072C62.2102 50.9072 63.3739 49.4554 63.3739 47.6646V21.7247C63.3739 19.9331 62.2098 18.4822 60.7739 18.4822C59.3377 18.4822 58.174 19.9339 58.174 21.7247ZM66.6238 21.7247V47.6646C66.6238 49.4562 67.7879 50.9072 69.2238 50.9072C70.66 50.9072 71.8237 49.4554 71.8237 47.6646V21.7247C71.8237 19.9331 70.6597 18.4822 69.2238 18.4822C67.7876 18.4822 66.6238 19.9339 66.6238 21.7247ZM75.0737 21.7216V41.1828C75.0737 42.9719 76.2377 44.4222 77.6736 44.4222C79.1099 44.4222 80.2736 42.9718 80.2736 41.1828V21.7216C80.2736 19.9324 79.1095 18.4822 77.6736 18.4822C76.2374 18.4822 75.0737 19.9325 75.0737 21.7216ZM49.7241 21.7216V41.1828C49.7241 42.9719 50.8882 44.4222 52.3241 44.4222C53.7603 44.4222 54.924 42.9718 54.924 41.1828V21.7216C54.924 19.9324 53.76 18.4822 52.3241 18.4822C50.8878 18.4822 49.7241 19.9325 49.7241 21.7216Z" transform="translate(0 27)" fill="url(#paint1_linear)"/>
</g>
<defs>
<linearGradient id="paint0_linear" x2="1" gradientUnits="userSpaceOnUse" gradientTransform="translate(597) scale(597 188) rotate(90)">
<stop stop-color="#F64151"/>
<stop offset="1" stop-color="#F8A83A"/>
</linearGradient>
<linearGradient id="paint1_linear" x2="1" gradientUnits="userSpaceOnUse" gradientTransform="translate(129.998) scale(129.998 122.388) rotate(90)">
<stop stop-color="#F64151"/>
<stop offset="1" stop-color="#F8A83A"/>
</linearGradient>
</defs>
</svg>
