<?xml version="1.0" encoding="UTF-8"?>
<svg width="512px" height="123px" viewBox="0 0 512 123" version="1.1" xmlns="http://www.w3.org/2000/svg" xmlns:xlink="http://www.w3.org/1999/xlink">
    <!-- Generator: Sketch 43.1 (39012) - http://www.bohemiancoding.com/sketch -->
    <title>Logo + text</title>
    <desc>Created with Sketch.</desc>
    <defs>
        <linearGradient x1="50%" y1="0%" x2="50%" y2="100%" id="linearGradient-1">
            <stop stop-color="#F64151" offset="0%"></stop>
            <stop stop-color="#F8A83A" offset="100%"></stop>
        </linearGradient>
        <path d="M61.0989249,113.923555 C50.7235114,116.14776 41.0028736,125.931604 32.4998815,121.024254 C13.0714288,109.811469 0,88.8536713 0,64.8498753 C0,29.0342782 29.1009792,0 64.9988563,0 C100.896733,0 129.997713,29.0342782 129.997713,64.8498753 C129.997713,88.8572258 116.922412,109.817676 97.4891996,121.029234 C88.9882609,125.933661 79.2706906,116.148927 68.8987876,113.923873 L68.8987876,103.52874 C85.0089881,101.606504 97.4982844,87.9258559 97.4982844,71.3348628 C79.7665128,71.3348628 65.3514509,85.5028369 65.0052266,103.111302 L64.9924859,103.111302 C64.6462616,85.5028369 50.2311997,71.3348628 32.4994281,71.3348628 C32.4994281,87.9258559 44.9887244,101.606504 61.0989249,103.52874 L61.0989249,113.923555 Z M32.4994281,45.3949127 L32.4994281,45.3949127 C32.4994281,63.3027113 47.0499177,77.8198504 64.9988563,77.8198504 C64.9988563,59.9120518 50.4483667,45.3949127 32.4994281,45.3949127 Z M97.4982844,45.3949127 L97.4982844,45.3949127 C97.4982844,63.3027113 82.9477948,77.8198504 64.9988563,77.8198504 C64.9988563,59.9120518 79.5493459,45.3949127 97.4982844,45.3949127 Z M58.1739764,21.7247289 L58.1739764,47.6646377 C58.1739764,49.4562228 59.3380155,50.9071521 60.7739306,50.9071521 C62.2101614,50.9071521 63.3738849,49.4554289 63.3738849,47.6646377 L63.3738849,21.7247289 C63.3738849,19.9331438 62.2098457,18.4822145 60.7739306,18.4822145 C59.3376998,18.4822145 58.1739764,19.9339376 58.1739764,21.7247289 Z M66.6238277,21.7247289 L66.6238277,47.6646377 C66.6238277,49.4562228 67.7878668,50.9071521 69.2237819,50.9071521 C70.6600127,50.9071521 71.8237362,49.4554289 71.8237362,47.6646377 L71.8237362,21.7247289 C71.8237362,19.9331438 70.659697,18.4822145 69.2237819,18.4822145 C67.7875511,18.4822145 66.6238277,19.9339376 66.6238277,21.7247289 Z M75.073679,21.7216165 L75.073679,41.1827626 C75.073679,42.971937 76.2377182,44.4221646 77.6736332,44.4221646 C79.109864,44.4221646 80.2735875,42.9718349 80.2735875,41.1827626 L80.2735875,21.7216165 C80.2735875,19.9324421 79.1095483,18.4822145 77.6736332,18.4822145 C76.2374024,18.4822145 75.073679,19.9325441 75.073679,21.7216165 Z M49.724125,21.7216165 L49.724125,41.1827626 C49.724125,42.971937 50.8881642,44.4221646 52.3240793,44.4221646 C53.7603101,44.4221646 54.9240335,42.9718349 54.9240335,41.1827626 L54.9240335,21.7216165 C54.9240335,19.9324421 53.7599944,18.4822145 52.3240793,18.4822145 C50.8878485,18.4822145 49.724125,19.9325441 49.724125,21.7216165 Z" id="path-2"></path>
    </defs>
    <g id="Page-1" stroke="none" stroke-width="1" fill="none" fill-rule="evenodd">
        <g id="Brand-logo-with-text" transform="translate(-117.000000, -289.000000)">
            <g id="Logo-+-text" transform="translate(117.000000, 289.000000)">
                <path d="M150.618734,12.0978903 L241.612152,12.0978903 L241.612152,32.940827 L208.325671,32.940827 L208.325671,120.978903 L183.749671,120.978903 L183.749671,32.940827 L150.618734,32.940827 L150.618734,12.0978903 Z M250.910245,37.2960675 L274.864068,37.2960675 L274.864068,120.978903 L250.910245,120.978903 L250.910245,37.2960675 Z M272.142042,3.85404219 C274.578915,6.3427635 275.797333,9.55731363 275.797333,13.497789 C275.797333,17.4382644 274.578915,20.6528146 272.142042,23.1415359 C269.705169,25.6302572 266.568391,26.8745992 262.731612,26.8745992 C258.99853,26.8745992 255.913599,25.6043334 253.476726,23.0637637 C251.039853,20.523194 249.821435,17.3345677 249.821435,13.497789 C249.821435,9.55731363 251.039853,6.3427635 253.476726,3.85404219 C255.913599,1.36532089 258.99853,0.120978903 262.731612,0.120978903 C266.568391,0.120978903 269.705169,1.36532089 272.142042,3.85404219 Z M295.205806,5.56502954 L319.159629,5.56502954 L319.159629,120.978903 L295.205806,120.978903 L295.205806,5.56502954 Z M406.307646,48.1841688 C413.307174,55.9614229 416.806886,66.7975677 416.806886,80.6929283 C416.806886,83.1816496 416.755038,85.1000101 416.651342,86.4480675 L356.61124,86.4480675 C357.959298,91.7366003 360.551677,95.8584831 364.388456,98.8138397 C368.225234,101.769196 372.839669,103.246852 378.231899,103.246852 C382.172374,103.246852 385.957248,102.495062 389.586633,100.99146 C393.216018,99.4878575 396.482416,97.2843352 399.385924,94.380827 L411.985013,107.13546 C407.733447,111.905509 402.574613,115.560764 396.508354,118.101333 C390.442096,120.641903 383.675987,121.912169 376.209823,121.912169 C367.395601,121.912169 359.696235,120.149351 353.111494,116.623662 C346.526752,113.097974 341.445689,108.120606 337.868152,101.691409 C334.290615,95.2622126 332.501873,87.8480082 332.501873,79.4485738 C332.501873,70.9454427 334.316539,63.453467 337.945924,56.9724219 C341.575309,50.4913769 346.656372,45.4621613 353.189266,41.8846245 C359.722159,38.3070876 367.188211,36.518346 375.587646,36.518346 C389.068219,36.518346 399.308117,40.4069147 406.307646,48.1841688 Z M394.252962,72.2935359 C394.045569,66.7976097 392.282751,62.3905651 388.964456,59.07227 C385.646161,55.753975 381.239116,54.0948523 375.74319,54.0948523 C370.558354,54.0948523 366.229081,55.7280512 362.75524,58.9944979 C359.2814,62.2609446 357.077878,66.6939129 356.144608,72.2935359 L394.252962,72.2935359 Z M490.267004,41.8068523 C497.059139,45.3325408 502.321669,50.3099088 506.054751,56.7391055 C509.787833,63.1683022 511.654346,70.6343541 511.654346,79.1374852 C511.654346,87.5369196 509.787833,94.9770478 506.054751,101.458093 C502.321669,107.939138 497.059139,112.968353 490.267004,116.54589 C483.474869,120.123427 475.671808,121.912169 466.857586,121.912169 C457.939668,121.912169 450.08476,120.123427 443.292624,116.54589 C436.500489,112.968353 431.237959,107.939138 427.504878,101.458093 C423.771796,94.9770478 421.905283,87.5369196 421.905283,79.1374852 C421.905283,70.6343541 423.771796,63.1683022 427.504878,56.7391055 C431.237959,50.3099088 436.500489,45.3325408 443.292624,41.8068523 C450.08476,38.2811638 457.939668,36.518346 466.857586,36.518346 C475.671808,36.518346 483.474869,38.2811638 490.267004,41.8068523 Z M451.692017,62.8053333 C447.80339,67.0568989 445.859105,72.6045903 445.859105,79.4485738 C445.859105,86.2925574 447.80339,91.8402488 451.692017,96.0918143 C455.580644,100.34338 460.635783,102.469131 466.857586,102.469131 C472.975693,102.469131 477.978985,100.34338 481.867612,96.0918143 C485.756239,91.8402488 487.700523,86.2925574 487.700523,79.4485738 C487.700523,72.6045903 485.756239,67.0568989 481.867612,62.8053333 C477.978985,58.5537678 472.975693,56.4280169 466.857586,56.4280169 C460.635783,56.4280169 455.580644,58.5537678 451.692017,62.8053333 Z" id="Tileo" fill="url(#linearGradient-1)"></path>
                <g id="Logo-image">
                    <g id="Logo">
                        <mask id="mask-3" fill="white">
                            <use xlink:href="#path-2"></use>
                        </mask>
                        <use id="Combined-Shape" fill="url(#linearGradient-1)" xlink:href="#path-2"></use>
                    </g>
                </g>
            </g>
        </g>
    </g>
</svg>