<svg width="759" height="156" viewBox="0 0 759 156" fill="none" xmlns="http://www.w3.org/2000/svg">
<path d="M83.776 156.9H33.726L24.178 180H-1.386L46.662 72.2H71.302L119.504 180H93.324L83.776 156.9ZM75.922 137.958L58.828 96.686L41.734 137.958H75.922ZM213.712 97.148V166.14C213.712 181.335 209.76 192.628 201.854 200.02C193.949 207.412 182.399 211.108 167.204 211.108C159.196 211.108 151.599 210.133 144.412 208.182C137.226 206.231 131.271 203.408 126.548 199.712L136.096 182.464C139.587 185.339 144.002 187.597 149.34 189.24C154.679 190.985 160.018 191.858 165.356 191.858C173.672 191.858 179.781 189.959 183.682 186.16C187.686 182.464 189.688 176.817 189.688 169.22V165.678C183.426 172.557 174.699 175.996 163.508 175.996C155.911 175.996 148.93 174.353 142.564 171.068C136.302 167.68 131.322 162.957 127.626 156.9C123.93 150.843 122.082 143.861 122.082 135.956C122.082 128.051 123.93 121.069 127.626 115.012C131.322 108.955 136.302 104.283 142.564 100.998C148.93 97.61 155.911 95.916 163.508 95.916C175.52 95.916 184.658 99.8687 190.92 107.774V97.148H213.712ZM168.282 156.284C174.648 156.284 179.832 154.436 183.836 150.74C187.943 146.941 189.996 142.013 189.996 135.956C189.996 129.899 187.943 125.022 183.836 121.326C179.832 117.527 174.648 115.628 168.282 115.628C161.917 115.628 156.681 117.527 152.574 121.326C148.468 125.022 146.414 129.899 146.414 135.956C146.414 142.013 148.468 146.941 152.574 150.74C156.681 154.436 161.917 156.284 168.282 156.284ZM259.018 108.082C261.893 104.078 265.743 101.049 270.568 98.996C275.496 96.9427 281.143 95.916 287.508 95.916V118.092C284.839 117.887 283.042 117.784 282.118 117.784C275.24 117.784 269.85 119.735 265.948 123.636C262.047 127.435 260.096 133.184 260.096 140.884V180H236.072V97.148H259.018V108.082ZM340.465 181.232C331.738 181.232 323.884 179.435 316.903 175.842C310.024 172.146 304.634 167.064 300.733 160.596C296.832 154.128 294.881 146.787 294.881 138.574C294.881 130.361 296.832 123.02 300.733 116.552C304.634 110.084 310.024 105.053 316.903 101.46C323.884 97.764 331.738 95.916 340.465 95.916C349.192 95.916 356.994 97.764 363.873 101.46C370.752 105.053 376.142 110.084 380.043 116.552C383.944 123.02 385.895 130.361 385.895 138.574C385.895 146.787 383.944 154.128 380.043 160.596C376.142 167.064 370.752 172.146 363.873 175.842C356.994 179.435 349.192 181.232 340.465 181.232ZM340.465 161.52C346.625 161.52 351.656 159.467 355.557 155.36C359.561 151.151 361.563 145.555 361.563 138.574C361.563 131.593 359.561 126.049 355.557 121.942C351.656 117.733 346.625 115.628 340.465 115.628C334.305 115.628 329.223 117.733 325.219 121.942C321.215 126.049 319.213 131.593 319.213 138.574C319.213 145.555 321.215 151.151 325.219 155.36C329.223 159.467 334.305 161.52 340.465 161.52ZM481.933 97.148L446.975 180H422.181L387.377 97.148H412.171L435.117 153.512L458.833 97.148H481.933ZM491.736 97.148H515.76V180H491.736V97.148ZM503.748 85.598C499.334 85.598 495.74 84.3147 492.968 81.748C490.196 79.1813 488.81 75.9987 488.81 72.2C488.81 68.4013 490.196 65.2187 492.968 62.652C495.74 60.0853 499.334 58.802 503.748 58.802C508.163 58.802 511.756 60.034 514.528 62.498C517.3 64.962 518.686 68.042 518.686 71.738C518.686 75.742 517.3 79.0787 514.528 81.748C511.756 84.3147 508.163 85.598 503.748 85.598ZM606.279 161.52V180H532.359V165.524L574.555 115.628H533.437V97.148H604.893V111.624L562.697 161.52H606.279Z" transform="translate(151 -57)" fill="white"/>
<mask id="mask0" mask-type="alpha" maskUnits="userSpaceOnUse" x="0" y="1" width="130" height="123">
<path d="M60.9204 114.053C50.5753 116.279 40.8831 126.074 32.4049 121.161C13.0332 109.936 0 88.9543 0 64.9233C0 29.0671 29.016 0 64.809 0C100.602 0 129.618 29.0671 129.618 64.9233C129.618 88.9578 116.581 109.942 97.2044 121.166C88.7283 126.076 79.0391 116.28 68.6975 114.053V103.646C84.7607 101.722 97.2135 88.0254 97.2135 71.4156C79.5335 71.4156 65.1606 85.5996 64.8153 103.228H64.8026C64.4574 85.5996 50.0845 71.4156 32.4045 71.4156C32.4045 88.0254 44.8573 101.722 60.9204 103.646V114.053ZM32.4045 45.4463C32.4045 63.3744 46.9125 77.9079 64.809 77.9079C64.809 59.9799 50.301 45.4463 32.4045 45.4463ZM97.2135 45.4463C79.317 45.4463 64.809 59.9799 64.809 77.9079C82.7055 77.9079 97.2135 63.3744 97.2135 45.4463ZM58.004 21.7493V47.7186C58.004 49.5122 59.1647 50.9648 60.5964 50.9648C62.0284 50.9648 63.1888 49.5114 63.1888 47.7186V21.7493C63.1888 19.9557 62.0281 18.5031 60.5964 18.5031C59.1644 18.5031 58.004 19.9565 58.004 21.7493ZM66.4292 21.7493V47.7186C66.4292 49.5122 67.5898 50.9648 69.0216 50.9648C70.4536 50.9648 71.6139 49.5114 71.6139 47.7186V21.7493C71.6139 19.9557 70.4533 18.5031 69.0216 18.5031C67.5895 18.5031 66.4292 19.9565 66.4292 21.7493ZM74.8544 21.7462V41.2294C74.8544 43.0206 76.015 44.4725 77.4467 44.4725C78.8788 44.4725 80.0391 43.0205 80.0391 41.2294V21.7462C80.0391 19.955 78.8785 18.5031 77.4467 18.5031C76.0147 18.5031 74.8544 19.9551 74.8544 21.7462ZM49.5789 21.7462V41.2294C49.5789 43.0206 50.7395 44.4725 52.1712 44.4725C53.6033 44.4725 54.7636 43.0205 54.7636 41.2294V21.7462C54.7636 19.955 53.603 18.5031 52.1712 18.5031C50.7392 18.5031 49.5789 19.9551 49.5789 21.7462Z" transform="translate(0 1)" fill="white"/>
</mask>
<g mask="url(#mask0)">
<path d="M60.9204 114.053C50.5753 116.279 40.8831 126.074 32.4049 121.161C13.0332 109.936 0 88.9543 0 64.9233C0 29.0671 29.016 0 64.809 0C100.602 0 129.618 29.0671 129.618 64.9233C129.618 88.9578 116.581 109.942 97.2044 121.166C88.7283 126.076 79.0391 116.28 68.6975 114.053V103.646C84.7607 101.722 97.2135 88.0254 97.2135 71.4156C79.5335 71.4156 65.1606 85.5996 64.8153 103.228H64.8026C64.4574 85.5996 50.0845 71.4156 32.4045 71.4156C32.4045 88.0254 44.8573 101.722 60.9204 103.646V114.053ZM32.4045 45.4463C32.4045 63.3744 46.9125 77.9079 64.809 77.9079C64.809 59.9799 50.301 45.4463 32.4045 45.4463ZM97.2135 45.4463C79.317 45.4463 64.809 59.9799 64.809 77.9079C82.7055 77.9079 97.2135 63.3744 97.2135 45.4463ZM58.004 21.7493V47.7186C58.004 49.5122 59.1647 50.9648 60.5964 50.9648C62.0284 50.9648 63.1888 49.5114 63.1888 47.7186V21.7493C63.1888 19.9557 62.0281 18.5031 60.5964 18.5031C59.1644 18.5031 58.004 19.9565 58.004 21.7493ZM66.4292 21.7493V47.7186C66.4292 49.5122 67.5898 50.9648 69.0216 50.9648C70.4536 50.9648 71.6139 49.5114 71.6139 47.7186V21.7493C71.6139 19.9557 70.4533 18.5031 69.0216 18.5031C67.5895 18.5031 66.4292 19.9565 66.4292 21.7493ZM74.8544 21.7462V41.2294C74.8544 43.0206 76.015 44.4725 77.4467 44.4725C78.8788 44.4725 80.0391 43.0205 80.0391 41.2294V21.7462C80.0391 19.955 78.8785 18.5031 77.4467 18.5031C76.0147 18.5031 74.8544 19.9551 74.8544 21.7462ZM49.5789 21.7462V41.2294C49.5789 43.0206 50.7395 44.4725 52.1712 44.4725C53.6033 44.4725 54.7636 43.0205 54.7636 41.2294V21.7462C54.7636 19.955 53.603 18.5031 52.1712 18.5031C50.7392 18.5031 49.5789 19.9551 49.5789 21.7462Z" transform="translate(0 1)" fill="white"/>
</g>
</svg>
