<svg width="844" height="269" viewBox="0 0 844 269" fill="none" xmlns="http://www.w3.org/2000/svg">
<path d="M119.68 180H48.18L34.54 213H-1.98L66.66 59H101.86L170.72 213H133.32L119.68 180ZM108.46 152.94L84.04 93.98L59.62 152.94H108.46ZM303.303 94.64V193.2C303.303 214.907 297.657 231.04 286.363 241.6C275.07 252.16 258.57 257.44 236.863 257.44C225.423 257.44 214.57 256.047 204.303 253.26C194.037 250.473 185.53 246.44 178.783 241.16L192.423 216.52C197.41 220.627 203.717 223.853 211.343 226.2C218.97 228.693 226.597 229.94 234.223 229.94C246.103 229.94 254.83 227.227 260.403 221.8C266.123 216.52 268.983 208.453 268.983 197.6V192.54C260.037 202.367 247.57 207.28 231.583 207.28C220.73 207.28 210.757 204.933 201.663 200.24C192.717 195.4 185.603 188.653 180.323 180C175.043 171.347 172.403 161.373 172.403 150.08C172.403 138.787 175.043 128.813 180.323 120.16C185.603 111.507 192.717 104.833 201.663 100.14C210.757 95.3 220.73 92.88 231.583 92.88C248.743 92.88 261.797 98.5267 270.743 109.82V94.64H303.303ZM238.403 179.12C247.497 179.12 254.903 176.48 260.623 171.2C266.49 165.773 269.423 158.733 269.423 150.08C269.423 141.427 266.49 134.46 260.623 129.18C254.903 123.753 247.497 121.04 238.403 121.04C229.31 121.04 221.83 123.753 215.963 129.18C210.097 134.46 207.163 141.427 207.163 150.08C207.163 158.733 210.097 165.773 215.963 171.2C221.83 176.48 229.31 179.12 238.403 179.12ZM366.026 110.26C370.133 104.54 375.633 100.213 382.526 97.28C389.566 94.3467 397.633 92.88 406.726 92.88V124.56C402.913 124.267 400.346 124.12 399.026 124.12C389.2 124.12 381.5 126.907 375.926 132.48C370.353 137.907 367.566 146.12 367.566 157.12V213H333.246V94.64H366.026V110.26ZM664.082 94.64L614.142 213H578.722L529.002 94.64H564.422L597.202 175.16L631.082 94.64H664.082ZM676.086 94.64H710.406V213H676.086V94.64ZM693.246 78.14C686.939 78.14 681.806 76.3067 677.846 72.64C673.886 68.9733 671.906 64.4267 671.906 59C671.906 53.5733 673.886 49.0267 677.846 45.36C681.806 41.6933 686.939 39.86 693.246 39.86C699.553 39.86 704.686 41.62 708.646 45.14C712.606 48.66 714.586 53.06 714.586 58.34C714.586 64.06 712.606 68.8267 708.646 72.64C704.686 76.3067 699.553 78.14 693.246 78.14ZM837.718 186.6V213H732.118V192.32L792.398 121.04H733.658V94.64H835.738V115.32L775.458 186.6H837.718Z" transform="translate(2)" fill="url(#paint0_linear)"/>
<path fill-rule="evenodd" clip-rule="evenodd" d="M58.28 109.839C48.3833 111.984 39.1111 121.417 31.0004 116.685C12.4683 105.875 0 85.6682 0 62.525C0 27.9934 27.7583 0 62 0C96.2417 0 124 27.9934 124 62.525C124 85.6716 111.528 105.881 92.9913 116.69C84.8826 121.419 75.6134 111.985 65.72 109.84V99.8172C81.0869 97.9638 93 84.7737 93 68.7775C76.0863 68.7775 62.3363 82.4375 62.0061 99.4147H61.9939C61.6637 82.4375 47.9137 68.7775 31 68.7775C31 84.7737 42.9131 97.9638 58.28 99.8172V109.839ZM31 43.7675C48.1208 43.7675 62 57.7642 62 75.03C44.8792 75.03 31 61.0333 31 43.7675ZM93 43.7675C93 61.0333 79.1208 75.03 62 75.03C62 57.7642 75.8792 43.7675 93 43.7675ZM55.49 20.9459V45.9558C55.49 47.6832 56.6003 49.0821 57.97 49.0821C59.34 49.0821 60.45 47.6824 60.45 45.9558V20.9459C60.45 19.2185 59.3396 17.8196 57.97 17.8196C56.6 17.8196 55.49 19.2193 55.49 20.9459ZM63.55 20.9459V45.9558C63.55 47.6832 64.6603 49.0821 66.03 49.0821C67.4 49.0821 68.51 47.6824 68.51 45.9558V20.9459C68.51 19.2185 67.3997 17.8196 66.03 17.8196C64.66 17.8196 63.55 19.2193 63.55 20.9459ZM71.61 20.9429V39.7063C71.61 41.4314 72.7203 42.8296 74.09 42.8296C75.46 42.8296 76.57 41.4313 76.57 39.7063V20.9429C76.57 19.2178 75.4597 17.8196 74.09 17.8196C72.72 17.8196 71.61 19.2179 71.61 20.9429ZM47.43 20.9429V39.7063C47.43 41.4314 48.5403 42.8296 49.91 42.8296C51.28 42.8296 52.39 41.4313 52.39 39.7063V20.9429C52.39 19.2178 51.2797 17.8196 49.91 17.8196C48.54 17.8196 47.43 19.2179 47.43 20.9429Z" transform="translate(413 95)" fill="url(#paint1_linear)"/>
<defs>
<linearGradient id="paint0_linear" x2="1" gradientUnits="userSpaceOnUse" gradientTransform="translate(842) scale(842 269) rotate(90)">
<stop stop-color="#F64151"/>
<stop offset="1" stop-color="#F8A83A"/>
</linearGradient>
<linearGradient id="paint1_linear" x2="1" gradientUnits="userSpaceOnUse" gradientTransform="translate(-68.9621 -54) scale(-261.924 172) rotate(90)">
<stop stop-color="#F64151"/>
<stop offset="1" stop-color="#F8A83A"/>
<stop offset="1" stop-color="#F8A83A"/>
</linearGradient>
</defs>
</svg>
