<?xml version="1.0" encoding="UTF-8"?>
<svg width="512px" height="174px" viewBox="0 0 512 174" version="1.1" xmlns="http://www.w3.org/2000/svg" xmlns:xlink="http://www.w3.org/1999/xlink">
    <!-- Generator: Sketch 43.1 (39012) - http://www.bohemiancoding.com/sketch -->
    <title>Logo inside text</title>
    <desc>Created with Sketch.</desc>
    <defs>
        <linearGradient x1="50%" y1="0%" x2="50%" y2="100%" id="linearGradient-1">
            <stop stop-color="#F64151" offset="0%"></stop>
            <stop stop-color="#F8A83A" offset="100%"></stop>
        </linearGradient>
    </defs>
    <g id="Page-1" stroke="none" stroke-width="1" fill="none" fill-rule="evenodd">
        <g id="Brand-logo-text-with-image-inside" transform="translate(-235.000000, -289.000000)" fill="url(#linearGradient-1)">
            <g id="Logo-inside-text" transform="translate(235.000000, 289.000000)">
                <path d="M0.847194245,17.1894484 L130.136403,17.1894484 L130.136403,46.8044125 L82.8408633,46.8044125 L82.8408633,171.894484 L47.9217266,171.894484 L47.9217266,46.8044125 L0.847194245,46.8044125 L0.847194245,17.1894484 Z M143.347722,52.9926139 L177.38283,52.9926139 L177.38283,171.894484 L143.347722,171.894484 L143.347722,52.9926139 Z M173.515204,5.47606715 C176.977667,9.01219993 178.708873,13.5796363 178.708873,19.1785132 C178.708873,24.7773901 176.977667,29.3448264 173.515204,32.8809592 C170.05274,36.417092 165.595807,38.1851319 160.144269,38.1851319 C154.840069,38.1851319 150.456804,36.3802579 146.99434,32.7704556 C143.531877,29.1606534 141.800671,24.6300512 141.800671,19.1785132 C141.800671,13.5796363 143.531877,9.01219993 146.99434,5.47606715 C150.456804,1.93993436 154.840069,0.171894484 160.144269,0.171894484 C165.595807,0.171894484 170.05274,1.93993436 173.515204,5.47606715 Z M206.285659,7.90714628 L240.320767,7.90714628 L240.320767,171.894484 L206.285659,171.894484 L206.285659,7.90714628 Z M364.146187,68.4631175 C374.09156,79.5135325 379.064172,94.910213 379.064172,114.653621 C379.064172,118.189754 378.990504,120.915482 378.843165,122.830887 L293.534388,122.830887 C295.449794,130.345169 299.13321,136.201802 304.584748,140.400959 C310.036286,144.600117 316.592767,146.699664 324.254388,146.699664 C329.853265,146.699664 335.231053,145.631474 340.387913,143.49506 C345.544774,141.358646 350.185878,138.227742 354.311367,134.102254 L372.212949,152.224844 C366.172056,159.002432 358.842057,164.196049 350.222734,167.805851 C341.60341,171.415654 331.989693,173.220528 321.381295,173.220528 C308.857491,173.220528 297.917744,170.715804 288.561726,165.706283 C279.205708,160.696762 271.986212,153.624602 266.903021,144.489592 C261.81983,135.354583 259.278273,124.820012 259.278273,112.885564 C259.278273,100.803777 261.856665,90.1587031 267.013525,80.950024 C272.170385,71.7413448 279.389881,64.595517 288.67223,59.5123261 C297.954579,54.4291353 308.562818,51.8875779 320.497266,51.8875779 C339.651319,51.8875779 354.200813,57.4127025 364.146187,68.4631175 Z M446.61769,160.217615 C436.818369,162.326861 427.637468,171.605022 419.606603,166.951311 C401.256911,156.318065 388.911271,136.443481 388.911271,113.680333 C388.911271,79.7158817 416.396424,52.1822542 450.301078,52.1822542 C484.205732,52.1822542 511.690885,79.7158817 511.690885,113.680333 C511.690885,136.446852 499.341588,156.323951 480.987401,166.956034 C472.958476,171.606973 463.780471,162.327968 453.984466,160.217918 L453.984466,150.360062 C469.200151,148.537177 480.995982,135.56362 480.995982,119.83014 C464.248763,119.83014 450.634095,133.265836 450.307095,149.964199 L450.295061,149.964199 C449.968061,133.265836 436.353393,119.83014 419.606175,119.83014 C419.606175,135.56362 431.402005,148.537177 446.61769,150.360062 L446.61769,160.217615 Z M347.018129,102.719233 L292.871367,102.719233 C294.197416,94.7629338 297.32832,88.4642918 302.264172,83.8231175 C307.200024,79.1819432 313.35133,76.8613909 320.718273,76.8613909 C328.527233,76.8613909 334.789041,79.2187774 339.503885,83.9336211 C344.218728,88.6484648 346.723452,94.9102727 347.018129,102.719233 Z M419.606175,95.230909 C436.558502,95.230909 450.301078,108.997723 450.301078,125.979948 C433.348751,125.979948 419.606175,112.213134 419.606175,95.230909 L419.606175,95.230909 Z M480.995982,95.230909 L480.995982,95.230909 C480.995982,112.213134 467.253405,125.979948 450.301078,125.979948 C450.301078,108.997723 464.043654,95.230909 480.995982,95.230909 Z M443.855148,72.7841301 L443.855148,97.3833221 C443.855148,99.0823083 444.954554,100.458246 446.310741,100.458246 C447.667225,100.458246 448.766333,99.0815555 448.766333,97.3833221 L448.766333,72.7841301 C448.766333,71.0851439 447.666927,69.7092065 446.310741,69.7092065 C444.954256,69.7092065 443.855148,71.0858967 443.855148,72.7841301 Z M451.835823,72.7841301 L451.835823,97.3833221 C451.835823,99.0823083 452.935229,100.458246 454.291416,100.458246 C455.6479,100.458246 456.747008,99.0815555 456.747008,97.3833221 L456.747008,72.7841301 C456.747008,71.0851439 455.647602,69.7092065 454.291416,69.7092065 C452.934931,69.7092065 451.835823,71.0858967 451.835823,72.7841301 Z M459.816498,72.7811785 L459.816498,91.2364659 C459.816498,92.9331659 460.915904,94.3084378 462.27209,94.3084378 C463.628575,94.3084378 464.727683,92.9330692 464.727683,91.2364659 L464.727683,72.7811785 C464.727683,71.0844784 463.628277,69.7092065 462.27209,69.7092065 C460.915606,69.7092065 459.816498,71.0845752 459.816498,72.7811785 Z M435.874473,72.7811785 L435.874473,91.2364659 C435.874473,92.9331659 436.973879,94.3084378 438.330066,94.3084378 C439.68655,94.3084378 440.785658,92.9330692 440.785658,91.2364659 L440.785658,72.7811785 C440.785658,71.0844784 439.686252,69.7092065 438.330066,69.7092065 C436.973581,69.7092065 435.874473,71.0845752 435.874473,72.7811785 Z" id="Combined-Shape"></path>
            </g>
        </g>
    </g>
</svg>