<?xml version="1.0" encoding="UTF-8"?>
<svg width="512px" height="123px" viewBox="0 0 512 123" version="1.1" xmlns="http://www.w3.org/2000/svg" xmlns:xlink="http://www.w3.org/1999/xlink">
    <!-- Generator: Sketch 43.1 (39012) - http://www.bohemiancoding.com/sketch -->
    <title>Logo + text</title>
    <desc>Created with Sketch.</desc>
    <defs>
        <path d="M60.920447,114.052521 C50.5753415,116.279243 40.8830989,126.074163 32.4049452,121.161258 C13.0332455,109.93578 0,88.9542569 0,64.9232877 C0,29.067146 29.0159715,0 64.8089862,0 C100.602001,0 129.617972,29.067146 129.617972,64.9232877 C129.617972,88.9578154 116.580867,109.941994 97.204421,121.166244 C88.7283147,126.076223 79.0391306,116.280412 68.6975254,114.052839 L68.6975254,103.645939 C84.7606658,101.721526 97.2134793,88.0253912 97.2134793,71.4156165 C79.5335045,71.4156165 65.1605509,85.5996293 64.8153379,103.228028 L64.8026344,103.228028 C64.4574215,85.5996293 50.0844679,71.4156165 32.4044931,71.4156165 C32.4044931,88.0253912 44.8573065,101.721526 60.920447,103.645939 L60.920447,114.052521 Z M32.4044931,45.4463014 L32.4044931,45.4463014 C32.4044931,63.3743723 46.9124788,77.9079453 64.8089862,77.9079453 C64.8089862,59.9798744 50.3010005,45.4463014 32.4044931,45.4463014 Z M97.2134793,45.4463014 C79.3169719,45.4463014 64.8089862,59.9798744 64.8089862,77.9079453 C82.7054935,77.9079453 97.2134793,63.3743723 97.2134793,45.4463014 L97.2134793,45.4463014 Z M58.0040426,21.7493221 L58.0040426,47.7185958 C58.0040426,49.512209 59.1646815,50.9647809 60.5964021,50.9647809 C62.0284375,50.9647809 63.1887615,49.5114143 63.1887615,47.7185958 L63.1887615,21.7493221 C63.1887615,19.9557089 62.0281227,18.503137 60.5964021,18.503137 C59.1643667,18.503137 58.0040426,19.9565036 58.0040426,21.7493221 Z M66.4292108,21.7493221 L66.4292108,47.7185958 C66.4292108,49.512209 67.5898497,50.9647809 69.0215703,50.9647809 C70.4536057,50.9647809 71.6139297,49.5114143 71.6139297,47.7185958 L71.6139297,21.7493221 C71.6139297,19.9557089 70.4532909,18.503137 69.0215703,18.503137 C67.5895349,18.503137 66.4292108,19.9565036 66.4292108,21.7493221 Z M74.854379,21.7462061 L74.854379,41.229383 C74.854379,43.0205828 76.0150179,44.4724521 77.4467385,44.4724521 C78.8787739,44.4724521 80.0390979,43.0204806 80.0390979,41.229383 L80.0390979,21.7462061 C80.0390979,19.9550064 78.8784591,18.503137 77.4467385,18.503137 C76.0147031,18.503137 74.854379,19.9551085 74.854379,21.7462061 Z M49.5788744,21.7462061 L49.5788744,41.229383 C49.5788744,43.0205828 50.7395133,44.4724521 52.1712339,44.4724521 C53.6032693,44.4724521 54.7635933,43.0204806 54.7635933,41.229383 L54.7635933,21.7462061 C54.7635933,19.9550064 53.6029545,18.503137 52.1712339,18.503137 C50.7391985,18.503137 49.5788744,19.9551085 49.5788744,21.7462061 Z" id="path-1"></path>
    </defs>
    <g id="Page-1" stroke="none" stroke-width="1" fill="none" fill-rule="evenodd">
        <g id="NS-Brand-logo-with-text" transform="translate(-110.000000, -290.000000)">
            <g id="Logo-+-text" transform="translate(110.000000, 290.000000)">
                <path d="M150.618734,12.0978903 L241.612152,12.0978903 L241.612152,32.940827 L208.325671,32.940827 L208.325671,120.978903 L183.749671,120.978903 L183.749671,32.940827 L150.618734,32.940827 L150.618734,12.0978903 Z M250.910245,37.2960675 L274.864068,37.2960675 L274.864068,120.978903 L250.910245,120.978903 L250.910245,37.2960675 Z M272.142042,3.85404219 C274.578915,6.3427635 275.797333,9.55731363 275.797333,13.497789 C275.797333,17.4382644 274.578915,20.6528146 272.142042,23.1415359 C269.705169,25.6302572 266.568391,26.8745992 262.731612,26.8745992 C258.99853,26.8745992 255.913599,25.6043334 253.476726,23.0637637 C251.039853,20.523194 249.821435,17.3345677 249.821435,13.497789 C249.821435,9.55731363 251.039853,6.3427635 253.476726,3.85404219 C255.913599,1.36532089 258.99853,0.120978903 262.731612,0.120978903 C266.568391,0.120978903 269.705169,1.36532089 272.142042,3.85404219 Z M295.205806,5.56502954 L319.159629,5.56502954 L319.159629,120.978903 L295.205806,120.978903 L295.205806,5.56502954 Z M406.307646,48.1841688 C413.307174,55.9614229 416.806886,66.7975677 416.806886,80.6929283 C416.806886,83.1816496 416.755038,85.1000101 416.651342,86.4480675 L356.61124,86.4480675 C357.959298,91.7366003 360.551677,95.8584831 364.388456,98.8138397 C368.225234,101.769196 372.839669,103.246852 378.231899,103.246852 C382.172374,103.246852 385.957248,102.495062 389.586633,100.99146 C393.216018,99.4878575 396.482416,97.2843352 399.385924,94.380827 L411.985013,107.13546 C407.733447,111.905509 402.574613,115.560764 396.508354,118.101333 C390.442096,120.641903 383.675987,121.912169 376.209823,121.912169 C367.395601,121.912169 359.696235,120.149351 353.111494,116.623662 C346.526752,113.097974 341.445689,108.120606 337.868152,101.691409 C334.290615,95.2622126 332.501873,87.8480082 332.501873,79.4485738 C332.501873,70.9454427 334.316539,63.453467 337.945924,56.9724219 C341.575309,50.4913769 346.656372,45.4621613 353.189266,41.8846245 C359.722159,38.3070876 367.188211,36.518346 375.587646,36.518346 C389.068219,36.518346 399.308117,40.4069147 406.307646,48.1841688 Z M394.252962,72.2935359 C394.045569,66.7976097 392.282751,62.3905651 388.964456,59.07227 C385.646161,55.753975 381.239116,54.0948523 375.74319,54.0948523 C370.558354,54.0948523 366.229081,55.7280512 362.75524,58.9944979 C359.2814,62.2609446 357.077878,66.6939129 356.144608,72.2935359 L394.252962,72.2935359 Z M490.267004,41.8068523 C497.059139,45.3325408 502.321669,50.3099088 506.054751,56.7391055 C509.787833,63.1683022 511.654346,70.6343541 511.654346,79.1374852 C511.654346,87.5369196 509.787833,94.9770478 506.054751,101.458093 C502.321669,107.939138 497.059139,112.968353 490.267004,116.54589 C483.474869,120.123427 475.671808,121.912169 466.857586,121.912169 C457.939668,121.912169 450.08476,120.123427 443.292624,116.54589 C436.500489,112.968353 431.237959,107.939138 427.504878,101.458093 C423.771796,94.9770478 421.905283,87.5369196 421.905283,79.1374852 C421.905283,70.6343541 423.771796,63.1683022 427.504878,56.7391055 C431.237959,50.3099088 436.500489,45.3325408 443.292624,41.8068523 C450.08476,38.2811638 457.939668,36.518346 466.857586,36.518346 C475.671808,36.518346 483.474869,38.2811638 490.267004,41.8068523 Z M451.692017,62.8053333 C447.80339,67.0568989 445.859105,72.6045903 445.859105,79.4485738 C445.859105,86.2925574 447.80339,91.8402488 451.692017,96.0918143 C455.580644,100.34338 460.635783,102.469131 466.857586,102.469131 C472.975693,102.469131 477.978985,100.34338 481.867612,96.0918143 C485.756239,91.8402488 487.700523,86.2925574 487.700523,79.4485738 C487.700523,72.6045903 485.756239,67.0568989 481.867612,62.8053333 C477.978985,58.5537678 472.975693,56.4280169 466.857586,56.4280169 C460.635783,56.4280169 455.580644,58.5537678 451.692017,62.8053333 Z" id="Tileo" fill="#FFFFFF"></path>
                <g id="Logo-image" transform="translate(0.000000, -0.000000)">
                    <g id="Logo">
                        <mask id="mask-2" fill="white">
                            <use xlink:href="#path-1"></use>
                        </mask>
                        <use id="Combined-Shape" fill="#FFFFFF" xlink:href="#path-1"></use>
                    </g>
                </g>
            </g>
        </g>
    </g>
</svg>
