<?xml version="1.0" encoding="UTF-8"?>
<svg width="34px" height="32px" viewBox="0 0 34 32" version="1.1" xmlns="http://www.w3.org/2000/svg" xmlns:xlink="http://www.w3.org/1999/xlink">
    <!-- Generator: Sketch 43.1 (39012) - http://www.bohemiancoding.com/sketch -->
    <title>Combined Shape</title>
    <desc>Created with Sketch.</desc>
    <defs>
        <path d="M15.8313004,29.7430099 C13.1429341,30.3237023 10.6242264,32.8780552 8.42102194,31.5968508 C3.38692893,28.669432 -2.84217094e-14,23.1977981 -2.84217094e-14,16.930919 C-2.84217094e-14,7.58023064 7.54033469,0 16.8418089,0 C26.1432831,0 33.6836178,7.58023064 33.6836178,16.930919 C33.6836178,23.1987261 30.2956857,28.6710525 25.2603594,31.5981511 C23.057687,32.8785924 20.5397741,30.3240071 17.8523174,29.743093 L17.8523174,27.0291456 C22.0266204,26.5272905 25.2627134,22.9555653 25.2627134,18.6240109 C20.6682462,18.6240109 16.9331695,22.3229667 16.8434595,26.9201612 L16.8401583,26.9201612 C16.7504483,22.3229667 13.0153716,18.6240109 8.42090446,18.6240109 C8.42090446,22.9555653 11.6569974,26.5272905 15.8313004,27.0291456 L15.8313004,29.7430099 Z M8.42090446,11.8516433 L8.42090446,11.8516433 C8.42090446,16.5269875 12.1910718,20.3171028 16.8418089,20.3171028 C16.8418089,15.6417586 13.0716416,11.8516433 8.42090446,11.8516433 Z M25.2627134,11.8516433 L25.2627134,11.8516433 C25.2627134,16.5269875 21.492546,20.3171028 16.8418089,20.3171028 C16.8418089,15.6417586 20.6119763,11.8516433 25.2627134,11.8516433 Z M15.073419,5.67186327 L15.073419,12.4442201 C15.073419,12.9119647 15.3750324,13.2907714 15.7470913,13.2907714 C16.1192321,13.2907714 16.4207637,12.9117575 16.4207637,12.4442201 L16.4207637,5.67186327 C16.4207637,5.20411862 16.1191503,4.82531192 15.7470913,4.82531192 C15.3749506,4.82531192 15.073419,5.20432587 15.073419,5.67186327 Z M17.2628541,5.67186327 L17.2628541,12.4442201 C17.2628541,12.9119647 17.5644675,13.2907714 17.9365265,13.2907714 C18.3086673,13.2907714 18.6101988,12.9117575 18.6101988,12.4442201 L18.6101988,5.67186327 C18.6101988,5.20411862 18.3085855,4.82531192 17.9365265,4.82531192 C17.5643857,4.82531192 17.2628541,5.20432587 17.2628541,5.67186327 Z M19.4522893,5.67105067 L19.4522893,10.7519408 C19.4522893,11.219056 19.7539027,11.5976795 20.1259616,11.5976795 C20.4981024,11.5976795 20.799634,11.2190294 20.799634,10.7519408 L20.799634,5.67105067 C20.799634,5.20393542 20.4980206,4.82531192 20.1259616,4.82531192 C19.7538209,4.82531192 19.4522893,5.20396206 19.4522893,5.67105067 Z M12.8839838,5.67105067 L12.8839838,10.7519408 C12.8839838,11.219056 13.1855972,11.5976795 13.5576562,11.5976795 C13.9297969,11.5976795 14.2313285,11.2190294 14.2313285,10.7519408 L14.2313285,5.67105067 C14.2313285,5.20393542 13.9297151,4.82531192 13.5576562,4.82531192 C13.1855154,4.82531192 12.8839838,5.20396206 12.8839838,5.67105067 Z" id="path-1"></path>
    </defs>
    <g id="Website" stroke="none" stroke-width="1" fill="none" fill-rule="evenodd">
        <g id="TILEO---FIRST-STEP" transform="translate(-250.000000, -960.000000)">
            <g id="Footer" transform="translate(0.000000, 928.000000)">
                <g id="Logo-image" transform="translate(250.000000, 32.000000)">
                    <g id="Logo">
                        <mask id="mask-2" fill="white">
                            <use xlink:href="#path-1"></use>
                        </mask>
                        <use id="Combined-Shape" fill="#999FA4" xlink:href="#path-1"></use>
                    </g>
                </g>
            </g>
        </g>
    </g>
</svg>